HIERARCHY
ROOT Hips
{
	OFFSET -14.64140 90.27770 -84.91600
	CHANNELS 6 Xposition Yposition Zposition Zrotation Xrotation Yrotation
	JOINT Spine
	{
		OFFSET 0.00000 13.20850 -1.60436
		CHANNELS 3 Zrotation Xrotation Yrotation
		JOINT Spine1
		{
			OFFSET 0.00000 8.61716 0.00000
			CHANNELS 3 Zrotation Xrotation Yrotation
			JOINT Spine2
			{
				OFFSET 0.00000 8.61717 0.00000
				CHANNELS 3 Zrotation Xrotation Yrotation
				JOINT Spine3
				{
					OFFSET 0.00000 8.61717 0.00000
					CHANNELS 3 Zrotation Xrotation Yrotation
					JOINT Neck
					{
						OFFSET 0.00000 11.07920 1.10792
						CHANNELS 3 Zrotation Xrotation Yrotation
						JOINT Neck1
						{
							OFFSET 0.00000 7.08032 0.00000
							CHANNELS 3 Zrotation Xrotation Yrotation
							JOINT Head
							{
								OFFSET 0.00000 7.08031 0.00000
								CHANNELS 3 Zrotation Xrotation Yrotation
								End site
								{
									OFFSET 0.00000 0.00000 0.00000
								}
							}
						}
					}
					JOINT RightShoulder
					{
						OFFSET -0.01000 7.91373 5.19711
						CHANNELS 3 Zrotation Xrotation Yrotation
						JOINT RightArm
						{
							OFFSET -18.41580 0.00000 0.00000
							CHANNELS 3 Zrotation Xrotation Yrotation
							JOINT RightForeArm
							{
								OFFSET -29.11090 0.00000 0.00000
								CHANNELS 3 Zrotation Xrotation Yrotation
								JOINT RightHand
								{
									OFFSET -24.65040 0.00000 0.00000
									CHANNELS 3 Zrotation Xrotation Yrotation
									JOINT RightHandThumb1
									{
										OFFSET -5.35114 -0.85590 3.97906
										CHANNELS 3 Zrotation Xrotation Yrotation
										JOINT RightHandThumb2
										{
											OFFSET -4.52789 0.00000 0.00000
											CHANNELS 3 Zrotation Xrotation Yrotation
											JOINT RightHandThumb3
											{
												OFFSET -2.46976 0.00000 0.00000
												CHANNELS 3 Zrotation Xrotation Yrotation
												End site
												{
													OFFSET 0.00000 0.00000 0.00000
												}
											}
										}
									}
									JOINT RightHandIndex1
									{
										OFFSET -14.26970 0.00000 2.88139
										CHANNELS 3 Zrotation Xrotation Yrotation
										JOINT RightHandIndex2
										{
											OFFSET -5.48836 0.00000 0.00000
											CHANNELS 3 Zrotation Xrotation Yrotation
											JOINT RightHandIndex3
											{
												OFFSET -3.01859 0.00000 0.00000
												CHANNELS 3 Zrotation Xrotation Yrotation
												End site
												{
													OFFSET 0.00000 0.00000 0.00000
												}
											}
										}
									}
									JOINT RightHandMiddle1
									{
										OFFSET -14.26970 0.00000 -0.09147
										CHANNELS 3 Zrotation Xrotation Yrotation
										JOINT RightHandMiddle2
										{
											OFFSET -6.17441 0.00000 0.00000
											CHANNELS 3 Zrotation Xrotation Yrotation
											JOINT RightHandMiddle3
											{
												OFFSET -3.56743 0.00000 0.00000
												CHANNELS 3 Zrotation Xrotation Yrotation
												End site
												{
													OFFSET 0.00000 0.00000 0.00000
												}
											}
										}
									}
									JOINT RightHandRing1
									{
										OFFSET -12.69180 0.00000 -3.06433
										CHANNELS 3 Zrotation Xrotation Yrotation
										JOINT RightHandRing2
										{
											OFFSET -5.62556 0.00000 0.00000
											CHANNELS 3 Zrotation Xrotation Yrotation
											JOINT RightHandRing3
											{
												OFFSET -3.56744 0.00000 0.00000
												CHANNELS 3 Zrotation Xrotation Yrotation
												End site
												{
													OFFSET 0.00000 0.00000 0.00000
												}
											}
										}
									}
									JOINT RightHandPinky1
									{
										OFFSET -11.11390 0.00000 -6.03719
										CHANNELS 3 Zrotation Xrotation Yrotation
										JOINT RightHandPinky2
										{
											OFFSET -4.52789 0.00000 0.00000
											CHANNELS 3 Zrotation Xrotation Yrotation
											JOINT RightHandPinky3
											{
												OFFSET -2.46976 0.00000 0.00000
												CHANNELS 3 Zrotation Xrotation Yrotation
												End site
												{
													OFFSET 0.00000 0.00000 0.00000
												}
											}
										}
									}
								}
							}
						}
					}
					JOINT LeftShoulder
					{
						OFFSET 0.01000 7.91373 5.19711
						CHANNELS 3 Zrotation Xrotation Yrotation
						JOINT LeftArm
						{
							OFFSET 18.41580 0.00000 0.00000
							CHANNELS 3 Zrotation Xrotation Yrotation
							JOINT LeftForeArm
							{
								OFFSET 29.11090 0.00000 0.00000
								CHANNELS 3 Zrotation Xrotation Yrotation
								JOINT LeftHand
								{
									OFFSET 24.65040 0.00000 0.00000
									CHANNELS 3 Zrotation Xrotation Yrotation
									JOINT LeftHandThumb1
									{
										OFFSET 5.35114 -0.85590 3.97906
										CHANNELS 3 Zrotation Xrotation Yrotation
										JOINT LeftHandThumb2
										{
											OFFSET 4.52789 0.00000 0.00000
											CHANNELS 3 Zrotation Xrotation Yrotation
											JOINT LeftHandThumb3
											{
												OFFSET 2.46977 0.00000 0.00000
												CHANNELS 3 Zrotation Xrotation Yrotation
												End site
												{
													OFFSET 0.00000 0.00000 0.00000
												}
											}
										}
									}
									JOINT LeftHandIndex1
									{
										OFFSET 14.26970 0.00000 2.88139
										CHANNELS 3 Zrotation Xrotation Yrotation
										JOINT LeftHandIndex2
										{
											OFFSET 5.48836 0.00000 0.00000
											CHANNELS 3 Zrotation Xrotation Yrotation
											JOINT LeftHandIndex3
											{
												OFFSET 3.01859 0.00000 0.00000
												CHANNELS 3 Zrotation Xrotation Yrotation
												End site
												{
													OFFSET 0.00000 0.00000 0.00000
												}
											}
										}
									}
									JOINT LeftHandMiddle1
									{
										OFFSET 14.26970 0.00000 -0.09147
										CHANNELS 3 Zrotation Xrotation Yrotation
										JOINT LeftHandMiddle2
										{
											OFFSET 6.17440 0.00000 0.00000
											CHANNELS 3 Zrotation Xrotation Yrotation
											JOINT LeftHandMiddle3
											{
												OFFSET 3.56744 0.00000 0.00000
												CHANNELS 3 Zrotation Xrotation Yrotation
												End site
												{
													OFFSET 0.00000 0.00000 0.00000
												}
											}
										}
									}
									JOINT LeftHandRing1
									{
										OFFSET 12.69180 0.00000 -3.06433
										CHANNELS 3 Zrotation Xrotation Yrotation
										JOINT LeftHandRing2
										{
											OFFSET 5.62556 0.00000 0.00000
											CHANNELS 3 Zrotation Xrotation Yrotation
											JOINT LeftHandRing3
											{
												OFFSET 3.56744 0.00000 0.00000
												CHANNELS 3 Zrotation Xrotation Yrotation
												End site
												{
													OFFSET 0.00000 0.00000 0.00000
												}
											}
										}
									}
									JOINT LeftHandPinky1
									{
										OFFSET 11.11390 0.00000 -6.03719
										CHANNELS 3 Zrotation Xrotation Yrotation
										JOINT LeftHandPinky2
										{
											OFFSET 4.52789 0.00000 0.00000
											CHANNELS 3 Zrotation Xrotation Yrotation
											JOINT LeftHandPinky3
											{
												OFFSET 2.46976 0.00000 0.00000
												CHANNELS 3 Zrotation Xrotation Yrotation
												End site
												{
													OFFSET 0.00000 0.00000 0.00000
												}
											}
										}
									}
								}
							}
						}
					}
					JOINT pCube4
					{
						OFFSET 0.00000 10.91090 1.10792
						CHANNELS 3 Zrotation Xrotation Yrotation
						End site
						{
							OFFSET 0.00000 0.00000 0.00000
						}
					}
				}
			}
		}
	}
	JOINT RightUpLeg
	{
		OFFSET -9.98441 0.00000 0.00000
		CHANNELS 3 Zrotation Xrotation Yrotation
		JOINT RightLeg
		{
			OFFSET 0.00000 -42.11790 0.00000
			CHANNELS 3 Zrotation Xrotation Yrotation
			JOINT RightFoot
			{
				OFFSET 0.00000 -45.00020 -0.00001
				CHANNELS 3 Zrotation Xrotation Yrotation
				JOINT RightForeFoot
				{
					OFFSET 0.00000 -3.74820 0.00000
					CHANNELS 3 Zrotation Xrotation Yrotation
					JOINT RightToeBase
					{
						OFFSET 0.00000 0.06325 14.43120
						CHANNELS 3 Zrotation Xrotation Yrotation
						End site
						{
							OFFSET 0.00000 0.00000 0.00000
						}
					}
				}
			}
		}
	}
	JOINT LeftUpLeg
	{
		OFFSET 9.98441 0.00000 0.00000
		CHANNELS 3 Zrotation Xrotation Yrotation
		JOINT LeftLeg
		{
			OFFSET 0.00000 -42.11800 0.00000
			CHANNELS 3 Zrotation Xrotation Yrotation
			JOINT LeftFoot
			{
				OFFSET 0.00000 -45.00070 0.00000
				CHANNELS 3 Zrotation Xrotation Yrotation
				JOINT LeftForeFoot
				{
					OFFSET 0.00000 -3.74824 0.00000
					CHANNELS 3 Zrotation Xrotation Yrotation
					JOINT LeftToeBase
					{
						OFFSET 0.00000 0.06325 14.43110
						CHANNELS 3 Zrotation Xrotation Yrotation
						End site
						{
							OFFSET 0.00000 0.00000 0.00000
						}
					}
				}
			}
		}
	}
}
MOTION
Frames: 4
Frame Time: 0.050000
0.02490374852423601 0.004817707793176402 -0.004824370767727741 -0.02946545866194274 0.015967352944764118 -0.012240699788984174 -2.39225453934682 -0.5547402349242803 -0.8641243306196634 -0.9817050962655509 3.642655558702781 0.34272938339054376 -1.1987325660847554 -2.0931343760729364 -0.47220147654071126 -0.30652470630304146 0.23258989440592157 -0.7539271379884109 -0.21497600938499695 13.88672066007193 1.100355866943821 0.2818245633995238 1.2617885055872569 0.9093236608463097 -0.0997100880939743 -12.913067223552096 0.10394284609241784 -4.733043631697084 1.8023826857352987 -15.17808991463961 70.5642565587138 18.605090059479124 10.481348676735115 9.99871133620995 3.00352291746476 104.70149808894858 15.467235632898205 -0.4697141263725479 -4.29753830939598 4.5399953137774975 -0.10355388696282605 -1.627850435154157 0.037277033791605296 0.041068235221707494 -56.21098314280459 0.049388453992932825 -0.005464673117840194 -56.24875943782649 -38.76980792460549 0.022908421854374902 -0.04096115011935602 -0.010905378550946915 -0.037664177020336566 0.03543427876699534 -0.03363959106377876 -0.0291847528927031 -0.04536881454178726 -36.718876470776344 0.04418877434545381 0.008482952745852647 0.006738552806027518 0.04885604480860318 -0.0074505691284093975 0.01842461905621307 -0.026789035562141073 -0.01301104032335764 -19.746610180286453 -0.04097541644566349 -0.02597554606856 0.006011560740851962 0.022324836610233188 0.009831988540510173 -0.017600010093367403 0.00975812853238402 -0.026016985928626953 24.009195645091314 0.031094035752128706 0.016448416629555426 28.909401977790136 0.026144749651418366 -0.01449897251528158 28.82390785553367 -0.03919411723869534 -0.009691083324241167 6.9118881637006435 1.6339396126288703 14.17493890859139 -69.82736522889122 27.26463690070187 -10.052747558534264 -1.8494312783431002 -2.824210235706154 -103.11128422480645 -10.204950703562625 -7.81951160334283 3.9655647107463987 -0.4655386707480133 0.03349046715527485 -8.110766269750155 0.03393837454522314 0.032063824245598005 44.603464068098766 0.003583332929548702 0.049037203480829246 44.607249599373844 12.438170466512279 -0.005767520835370027 0.02194899411836651 -0.00500894235545936 0.028086657659064828 0.01141586748181876 -0.028155785218729242 -0.03222877334918042 0.018076191265516427 11.08913296058467 -0.0004983964891872543 0.0006102888841132457 0.04211442681674783 0.019234778656765417 -0.013708585878235988 -0.01088373380692035 0.013679837059672252 -0.017411176440272076 4.791564607351597 0.0077993292231803915 0.04756606315315158 -0.0315407535127681 -0.0011893146865312113 -0.025374494388579426 0.02648096389577731 0.015641460420928826 -0.045523779974643346 -5.594267892943983 0.020735386931086217 0.025321781373328897 -6.705404436642232 0.027266669634186363 -0.037299399488492084 -6.687035049600229 0.02057328884640954 -0.02348265738033579 0.03956494668017538 0.010230700071789552 0.0006872361707977732 8.029795705863208 3.4764946417213225 -19.1863076230797 -0.02490948723939221 10.371818476615887 0.04215685389398206 -5.631789698796171 -15.672093677718115 3.1917064113652187 -0.008806230394505728 0.03178800975017878 0.046484469777142594 0.019008954296245033 4.668491157275375 0.045911216742478354 12.506730907221742 -8.266311990826374 6.885436852029246 0.00260805028342555 46.349159592216466 0.04417911728974917 -4.333795040677562 -14.732563763427494 -3.806936357774345 0.04000014756426731 0.001574734056096395 -0.0332549222045301 -0.030358788383299057 -10.760917170403177 0.04172644620886191 
-0.033854055657762824 -0.0007934076749919906 0.03239556626102062 0.04772647297397444 -0.0066733047206159165 -0.03216058605631117 -2.3664448779976834 -0.4158888465735154 -0.8267966130512371 -0.9516159204001563 3.722234343784929 0.3759406066709693 -1.151285306004574 -2.0691940642612385 -0.4823159563095506 -0.26120185933256695 0.21107856234160496 -0.6955454109928078 -0.2709297333096239 13.820893781952421 1.1339904718466811 0.19556238344614246 1.1028629013402436 1.0537775380538263 -0.08263561440993832 -13.072577171975235 0.10753099695014619 -4.498037770631825 1.7699832106402418 -15.160414427522666 70.57213211790271 19.554971676463957 10.103591632427367 10.19917645953982 2.7167985319024526 104.64318632603475 15.574944789135133 -0.46857657632702016 -4.345869924356997 4.506626857685986 -0.10636572779759679 -1.590210308032299 -0.010220005348064796 0.028088530927148216 -56.245288647878006 0.01308373384480632 -0.04346864556223732 -56.2237656125081 -38.77620537882614 -0.009824951253419503 0.00578190049253777 0.02978566520102246 -0.028272448475458005 0.0013139810612970114 0.03253928687231364 -0.03555914873360046 -0.010924107562961471 -36.67137318615515 -0.04958357631426615 0.010540711167318684 0.04679805409198007 0.04404336480667554 -0.03568657640206582 -0.030380001886023796 0.015391776893733583 0.014329136386638113 -19.76199244189073 -0.026869603621236884 4.847548154538693e-06 0.02936922298695148 -0.004715167613125374 0.016100899014617392 0.008794230164730204 0.041337098346737114 0.001102768057645857 24.01965256161059 -0.009275075516522336 0.005389497964907097 28.908404565901495 -0.031462028640038844 0.0029668851319857217 28.842651689628152 0.03657908299014914 0.02229617620488772 6.7530777044252455 1.517950479305308 14.137373367038874 -69.75046504277549 27.871801131461726 -9.898740189938072 -3.3496383681396913 -2.4075293643707445 -102.11235109941578 -10.766350579274114 -7.814738849639937 4.222565988159152 -0.4791717022846492 0.09551924696126247 -8.139841235155288 0.022689671281033087 -0.024678815330968943 44.594141507107736 0.010916275438533763 0.011848677583698952 44.56645293068311 12.498634781913305 -0.03203133139755885 -0.0487673528845477 -0.021427771735269684 0.04228230888376345 -0.016627542219001 -0.026451080427759333 -0.04166150301099332 -0.005580578042911903 11.13441348144938 0.0074890675344810986 -0.006449932020170687 -0.019314932904301 0.01644602877364454 -0.029346646724793944 -0.028644211216579837 0.04474048817423411 0.026569579190656435 4.813357300423627 0.04541611273035909 0.014769457713918669 -0.026849245259220625 -0.031456157578443555 -0.031439127699008015 0.0007666616345338044 -0.003387456891807394 0.005810068848996521 -5.6023988658862365 0.03667486669659861 -0.04452421177907419 -6.7214237546996936 -0.03356915170086866 -0.021941331227203667 -6.726295707637552 -0.044734723423594816 -0.00943689168618367 -0.004490574322172142 -0.010081163202011075 -0.04728722284997017 8.007260453138962 3.503628421832757 -19.208931371015776 0.015854845424206364 10.410608173403167 -0.02710645912605247 -5.6310065258825865 -15.664902110591512 3.192537685997399 0.011884689241362616 -0.03115060436120259 -0.003079772974833661 -0.011534605298956115 4.7270440975602686 0.03129364382779369 12.496067833545364 -8.265011929614325 6.884401256430952 -0.004981735343553765 46.423022700308806 -0.035187425223862485 -4.33387695596832 -14.732501546661336 -3.847335196552051 -0.006630046087551098 -0.020326448318284934 0.01349956142762767 0.02050929124864436 -10.71354281155048 0.024445482311019492 
0.015261024965618744 -0.048300995559865584 -0.029983177830641913 0.0074192937351287075 -0.02777372731911844 0.021544982112732626 -2.321737189067218 -0.25446546364573885 -0.8811143887782548 -0.9434774321105462 3.686557161775512 0.4348248873655174 -1.0940577494760921 -2.0219060582559734 -0.4695224901378482 -0.2643419000277655 0.251187762127658 -0.7078360881839173 -0.2800819530037027 13.727382109253433 1.0987345507682555 0.1694718987210182 1.0358348280435115 1.0216347338916634 -0.11150636333882276 -13.214657366234457 0.09916271532413722 -4.394688590500991 1.6906871389579772 -15.153981397062978 70.77264162805108 19.628673883663875 10.275398068771477 11.007167733903934 2.665626779177507 104.33125988280857 15.622425284145674 -0.48845710305760653 -4.274817850420641 4.486417914828121 -0.16730478717105488 -1.559489942374593 0.025876810686119377 -0.008246469414885875 -56.266052927147975 -0.00024323034151517016 0.008162106240489627 -56.20489096517755 -38.817775039283546 0.027885987788742465 0.01626650794861471 -0.0033951715985584487 0.009484282556706216 0.03737997516773938 0.016100773398843624 0.029444554059888113 -0.018449875391202433 -36.69627390980323 -0.019238584359736747 0.04850987675094169 -0.004691841323926936 0.0148502483839653 -0.011973998454734517 -0.04607470416805478 -0.021944877570450962 0.020999049081820712 -19.765742725582268 0.045613471154346864 0.0485893184105625 -0.001237754208749958 -0.028345367793322702 0.04065120231252313 -0.003741892899813927 -0.04856853652959195 0.02334264332042397 24.08833278609595 0.012970942563815506 0.007279272701041602 28.859162213158143 -0.03515987709087557 -0.02311264116462103 28.86971136208809 -0.02772794148743207 0.008051591223168595 6.603453075911422 1.588374676387365 14.032866704309349 -69.7542528032539 27.886660345910325 -10.00136928520938 -5.005743539915413 -1.853968313823102 -101.3938137219533 -11.020953136098806 -7.592096396605232 4.300595230690189 -0.46657757556611873 0.09582130526070547 -8.117712452608135 -0.03951986033630938 -0.023033608492252475 44.580406930702544 -0.02113247614485433 -0.03316358499888857 44.57564853270998 12.459759719166827 0.025488630737208154 0.036503545527189145 -0.04225105692093694 -0.01925946461951495 -0.023767173008842717 0.024542255501097288 0.0022984645979877696 -0.016202787860326563 11.154430543152593 -0.01383554522875924 0.014810581939935364 0.023726021612148287 0.0057729372525758054 -0.026314920789729943 -0.03989878710800721 0.008534391952358694 -0.01181122535643682 4.7989076465930935 0.029265107009774985 0.012578904925346034 0.014326015544635494 -0.03186252837703537 0.032883835441609534 -0.0032753597725307527 -0.0071210224068336886 -0.0318660138588944 -5.627440611866563 -0.018038015678567186 -0.026432061855059287 -6.7096168706037 -0.02946902191701877 -0.04119951787531751 -6.7228038928905605 0.03723708314267728 -0.007515767494468077 -0.021498864911858234 -0.047223491231459476 -0.0058269980230483635 8.070293343235749 3.536683391900765 -19.246725273123772 -0.0437576645918276 10.406587926108282 0.002208776272859647 -5.645036647730945 -15.646770015925647 3.200847663360103 -0.024167125815770307 -0.01856131510779451 0.03630320106187888 -0.020755625105231906 4.706601377722784 -0.028464138704517448 12.43706849259239 -8.271244982630913 6.918172108793615 0.026278089855591897 46.40200319421191 -0.04809544192326757 -4.275855843581785 -14.769391060623274 -3.8253260004006697 -0.009184828820940771 -0.024960833828783124 -0.013553683221757575 0.031002072802193522 -10.72930941717471 -0.034357829648094786 
-0.0356956595237236 0.036834124864023605 0.032820930483763854 -0.007747100156352735 0.0006136741075362722 -0.039949383619451835 -2.2381021058429407 -0.1638961847921617 -0.8278553825595463 -0.9816364746500077 3.6921100600940235 0.4108571055893239 -1.1470729689026793 -1.9096933680839567 -0.5304736083573399 -0.22113962600919332 0.21805689816470308 -0.7643281198277119 -0.38288510684657306 13.581842449186553 1.0930606417989177 0.17659761901484655 0.9475514955845896 1.0517998526344334 -0.10861589183388551 -13.290664844892795 0.127996470195462 -4.230599786826823 1.6330174739710623 -15.117372110610681 70.82976933636598 19.235025833587844 10.194226775040628 12.1251814156143 2.748044119149406 103.62464408516433 15.42169959332266 -0.4226498818101905 -4.255789662699754 4.539799447756054 -0.12372773810929248 -1.5905223196443818 0.0012155432220219591 0.02055467795868708 -56.20779610000296 -0.03370294642149998 -0.012003548728565492 -56.24118554856549 -38.76202311364388 0.023467597180443715 0.024229279165517766 -0.021584106654994804 -0.048455972939676406 0.04009622297508345 0.04109107813321765 -0.028372514016765497 0.03297167980931347 -36.6581771832684 0.031699100196015385 -0.019345337019755198 0.04133213362224908 -0.041972324436015174 0.0060137877343068545 -0.04847884960736321 0.01174647125330306 -0.041390128444957944 -19.79496051573144 0.006791579834263878 -0.03970236669208312 -0.02123290052562937 0.008736891665345263 -0.02828309681224413 -0.04285417505751851 0.029517410928499042 -0.02736852382984691 24.055760542830633 0.013186516095020303 0.044451298619867574 28.90013070246505 -0.014363855233699055 -0.024355822635075602 28.84097964608229 -0.020862990025371255 0.01615104254077633 6.5097915257863574 1.5320942908950026 13.975257039255288 -69.79037808910674 27.681262327071337 -10.35764383319507 -6.503628430732946 -1.4442394290107508 -100.61673124107988 -10.94678727502193 -7.225154681562285 4.136594342726513 -0.5031428825930805 0.0951472456194126 -8.168429782589747 0.002508163935491548 0.03440138608302317 44.518743999280986 0.011246592022489852 -0.043628025137823725 44.601664783645155 12.449169159801672 -0.015188975411361296 -0.019942488903909796 -0.04455189754699971 -0.024591609974944192 0.007384036329197877 -0.04152714749785773 -0.009702465580291666 0.02815168206188607 11.066178932302465 0.028645643844198935 0.0242336415621827 0.045218900557293225 0.004809752031809636 -0.027787404924445057 0.010331181764575679 -0.021607163280556698 0.03699472774728132 4.775080239571054 0.03134975336441159 0.04642908011527234 -0.014762104894941586 0.02471453265648114 -0.01273805831075282 -0.040869224528435555 0.012680801610605235 0.024215130559470065 -5.555245848177353 -0.022083395920378966 -0.04059124669654887 -6.72428639232376 -0.040692472139187565 0.011993259074851974 -6.73119081398165 -0.02567265634244466 -0.016666407292857104 0.03838094212875813 -0.024174910804972288 -0.015687965753195875 8.026385402044761 3.4791267850859264 -19.200628372296663 0.007966851356016822 10.415221800953033 0.03403730648045031 -5.588780674910427 -15.658529514071404 3.142675436490811 0.011298251958931249 0.04421773281595421 0.025454547832616314 0.02968988011397602 4.720893324589992 0.034327742937511126 12.507654364538443 -8.272827499318534 6.863931045327224 -0.010511628415530319 46.38818329688188 0.02796172019687741 -4.367186044970165 -14.758641613655952 -3.797971987227527 -0.03450235013480911 0.04286593725181275 0.03603320075654011 -0.03183393377435908 -10.724295264110719 0.04477639036759636 
